<svg xmlns="http://www.w3.org/2000/svg" xmlns:xlink="http://www.w3.org/1999/xlink" width="30" height="29" viewBox="0 0 30 29">
  <defs>
    <style>
      .cls-1 {
        clip-path: url(#clip-Web_1920_1);
      }

      .cls-2 {
        fill: #6e6e6e;
      }

      .cls-3 {
        fill: #fff;
      }
    </style>
    <clipPath id="clip-Web_1920_1">
      <rect width="30" height="29"/>
    </clipPath>
  </defs>
  <g id="Web_1920_1" data-name="Web 1920 – 1" class="cls-1">
    <rect class="cls-3" width="30" height="29"/>
    <path id="Shape" class="cls-2" d="M10.588-17.491A10.6,10.6,0,0,0,0-6.9,10.6,10.6,0,0,0,10.588,3.685a10.6,10.6,0,0,0,6.883-2.551l.449.446v1.29L26.062,11,28.49,8.571,20.365.427H19.072l-.45-.447A10.578,10.578,0,0,0,21.176-6.9,10.6,10.6,0,0,0,10.588-17.491Zm0,17.918A7.338,7.338,0,0,1,3.258-6.9a7.338,7.338,0,0,1,7.33-7.33,7.338,7.338,0,0,1,7.33,7.33A7.338,7.338,0,0,1,10.588.427Z" transform="translate(0 17.491)"/>
  </g>
</svg>
